<?xml version="1.0" standalone="no"?>
<!DOCTYPE svg PUBLIC "-//W3C//DTD SVG 20010904//EN"
 "http://www.w3.org/TR/2001/REC-SVG-20010904/DTD/svg10.dtd">
<svg version="1.0" xmlns="http://www.w3.org/2000/svg"
 width="300.000000pt" height="277.000000pt" viewBox="0 0 300.000000 277.000000"
 preserveAspectRatio="xMidYMid meet">

<g transform="translate(0.000000,277.000000) scale(0.100000,-0.100000)"
fill="#000000" stroke="none">
<path d="M0 1385 l0 -1385 1500 0 1500 0 0 1385 0 1385 -1500 0 -1500 0 0
-1385z m1737 1292 c13 -7 108 -28 119 -26 5 1 26 -6 48 -15 21 -10 45 -15 52
-12 8 3 14 2 14 -3 0 -7 32 -23 119 -59 10 -4 12 -1 7 9 -4 8 1 4 11 -7 10
-12 29 -27 43 -34 14 -7 51 -30 83 -52 32 -21 63 -35 69 -32 6 4 8 2 5 -3 -8
-13 57 -65 68 -55 5 4 5 2 2 -4 -4 -7 8 -24 28 -39 19 -15 67 -67 106 -116 40
-48 76 -86 81 -83 4 3 5 -1 2 -9 -3 -8 8 -28 24 -45 16 -17 27 -33 25 -36 -8
-8 18 -47 27 -41 6 4 7 -1 3 -11 -4 -11 -3 -15 5 -10 6 3 14 1 18 -5 4 -8 3
-9 -4 -5 -14 8 -15 4 -6 -18 3 -9 10 -13 15 -10 5 3 6 -2 3 -11 -4 -8 -2 -21
4 -28 13 -15 38 -83 58 -156 8 -29 17 -58 20 -63 4 -6 8 -27 9 -47 2 -20 8
-63 14 -96 16 -86 14 -250 -4 -344 -9 -45 -15 -87 -14 -94 1 -6 -4 -25 -11
-42 -7 -16 -13 -42 -14 -57 0 -16 -3 -28 -6 -28 -4 0 -12 -17 -19 -37 -8 -21
-27 -66 -43 -100 -16 -35 -26 -68 -22 -75 4 -7 4 -10 -1 -6 -11 11 -38 -29
-29 -44 4 -6 3 -8 -3 -5 -14 9 -56 -61 -47 -75 4 -6 2 -8 -4 -5 -5 4 -33 -22
-60 -57 -28 -35 -76 -88 -106 -117 -30 -29 -52 -57 -49 -62 3 -6 1 -7 -5 -3
-6 3 -16 1 -24 -6 -21 -20 -91 -72 -113 -84 -11 -6 -19 -16 -17 -23 1 -7 -2
-10 -7 -7 -5 3 -51 -15 -103 -40 -115 -58 -139 -68 -208 -87 -30 -9 -82 -23
-115 -33 -90 -26 -438 -27 -515 -1 -30 10 -64 17 -75 16 -11 -1 -36 5 -55 13
-19 9 -55 24 -80 33 -25 9 -59 24 -77 32 -17 8 -37 12 -44 8 -7 -5 -10 -4 -6
2 4 6 -8 18 -26 26 -18 9 -49 27 -70 41 -21 14 -40 26 -43 26 -9 0 -178 145
-208 178 -10 12 -23 19 -29 15 -5 -3 -7 -2 -4 4 3 5 -16 36 -44 69 -28 32 -57
72 -65 87 -8 15 -19 25 -24 22 -6 -3 -7 0 -4 8 3 8 1 18 -4 21 -5 3 -26 41
-46 83 -20 43 -43 91 -51 106 -8 16 -15 35 -15 43 0 8 -8 29 -17 47 -9 18 -16
38 -14 45 1 7 -6 37 -15 65 -10 29 -17 56 -16 60 2 5 -3 56 -9 114 -13 115 0
302 27 399 8 29 14 56 13 60 -1 5 5 26 14 46 10 21 17 42 17 48 0 11 90 198
113 235 6 11 31 46 55 77 24 33 40 63 36 70 -4 6 -3 8 3 5 6 -4 33 17 60 46
79 82 211 197 226 197 14 0 82 53 79 62 -1 5 2 7 7 3 6 -3 53 15 105 40 52 25
102 45 111 45 9 0 26 5 37 11 27 15 134 39 218 49 66 8 371 6 387 -3z"/>
<path d="M1355 2639 c-27 -5 -57 -12 -65 -16 -8 -3 -23 -5 -33 -4 -16 2 -65
-11 -149 -42 -16 -5 -28 -13 -28 -17 0 -5 -9 -6 -19 -3 -11 3 -27 -3 -38 -14
-10 -10 -26 -17 -35 -15 -9 2 -23 -6 -30 -17 -8 -12 -17 -18 -21 -15 -28 28
-412 -294 -391 -328 4 -7 3 -8 -4 -4 -11 7 -68 -71 -123 -170 -32 -58 -35 -69
-16 -58 6 4 -1 -5 -17 -20 -18 -18 -26 -34 -23 -46 3 -11 2 -20 -3 -20 -12 0
-33 -57 -25 -69 3 -6 2 -11 -3 -11 -10 0 -21 -39 -46 -155 -20 -95 -20 -347 0
-440 28 -126 36 -155 46 -155 5 0 6 -5 2 -11 -9 -16 47 -145 106 -244 16 -27
35 -60 41 -72 7 -13 16 -23 21 -23 4 0 8 -5 8 -11 0 -24 154 -183 240 -248
102 -77 129 -93 142 -85 7 4 8 3 4 -4 -8 -13 30 -36 44 -27 6 3 10 2 10 -4 0
-10 52 -37 147 -76 23 -10 49 -15 57 -12 9 4 16 3 16 -2 0 -11 86 -35 103 -28
8 3 19 1 24 -4 30 -30 334 -36 428 -7 22 6 44 10 50 9 22 -6 185 47 185 60 0
5 7 6 14 3 8 -3 28 1 43 9 15 8 48 25 73 37 56 28 177 106 207 133 12 11 20
24 16 30 -4 6 -1 7 6 2 24 -14 241 221 226 245 -4 6 -1 9 5 8 7 -2 21 11 31
27 42 70 59 107 54 116 -4 5 -1 9 5 9 14 0 62 110 56 127 -3 7 -1 13 4 13 5 0
14 19 20 43 7 23 18 65 26 92 16 57 17 67 18 265 0 167 -7 252 -25 295 -7 17
-11 34 -10 39 6 25 -79 227 -92 219 -6 -3 -7 -1 -3 5 17 28 -179 312 -205 296
-4 -2 -11 1 -15 7 -4 8 -3 9 4 5 30 -18 6 12 -49 63 -66 60 -119 98 -119 85 0
-5 -7 2 -16 14 -9 13 -22 21 -30 18 -8 -3 -13 0 -11 6 4 19 -195 123 -219 114
-8 -3 -14 -2 -14 3 0 10 -52 33 -66 30 -5 -1 -26 6 -48 15 -21 9 -48 16 -60
15 -11 -1 -28 1 -36 4 -64 26 -291 35 -395 16z m297 -57 c9 -9 10 -68 2 -109
-6 -29 -10 -33 -39 -33 -47 0 -95 11 -95 22 0 5 7 16 15 24 19 19 21 78 3 71
-8 -3 -13 4 -13 17 0 20 4 21 60 18 33 -2 63 -6 67 -10z m-176 -7 c12 -8 23
-13 25 -10 2 2 4 -21 4 -50 0 -29 -2 -53 -5 -53 -3 1 -18 -4 -34 -11 -16 -6
-47 -13 -70 -14 -36 -2 -41 0 -41 19 0 13 5 20 13 17 8 -4 12 8 12 42 0 38 -3
46 -15 41 -9 -3 -15 0 -15 9 0 25 94 33 126 10z m360 -71 l6 -45 26 36 c22 30
30 35 51 30 14 -4 28 -10 31 -14 3 -5 15 -7 28 -6 12 1 22 -2 22 -7 0 -5 22
-18 50 -30 l50 -21 -17 -28 c-10 -16 -23 -27 -30 -24 -8 2 -22 -4 -33 -15 -11
-11 -16 -20 -11 -20 5 0 14 7 21 15 19 23 33 3 19 -28 -12 -26 -39 -45 -39
-27 0 6 -20 19 -45 31 -25 12 -45 25 -45 30 0 5 -6 6 -14 3 -8 -3 -29 2 -46
11 -18 9 -43 15 -56 12 -13 -2 -24 0 -24 4 0 5 -7 9 -15 9 -8 0 -19 9 -24 19
-9 16 -8 18 11 13 18 -4 20 -2 16 16 -4 12 -3 22 2 22 15 0 17 36 2 50 -14 13
-13 15 9 21 34 8 47 -5 55 -57z m-581 13 c8 -12 15 -31 15 -43 0 -25 -24 -76
-32 -68 -9 8 -106 -23 -171 -55 -52 -25 -85 -25 -59 1 5 5 7 35 5 67 -7 76 10
84 63 30 41 -42 93 -56 79 -21 -4 9 -10 30 -13 45 -3 22 -9 28 -23 24 -14 -4
-16 -1 -10 17 6 13 16 20 28 18 11 -1 30 1 43 6 32 12 57 4 75 -21z m-286
-101 c20 -37 9 -54 -17 -26 -15 16 -22 19 -22 9 0 -22 34 -66 47 -62 6 2 14 0
17 -5 7 -12 -22 -37 -52 -47 -21 -6 -23 -4 -17 14 4 13 -1 33 -12 51 -21 36
-36 39 -27 5 7 -27 -12 -36 -22 -10 -4 8 -12 15 -20 15 -23 0 -5 24 39 52 53
33 70 34 86 4z m1195 -5 c-7 -7 35 -33 44 -27 5 3 9 -16 11 -43 1 -35 -3 -51
-16 -63 -21 -19 -93 -29 -93 -13 0 5 -13 17 -29 27 -28 15 -35 38 -16 55 4 4
5 2 0 -5 -5 -10 -2 -13 11 -10 11 2 18 11 18 21 -1 9 4 17 12 17 13 0 18 11
15 36 -1 7 10 11 23 10 13 0 22 -3 20 -5z m-1366 -88 c-2 -19 1 -27 10 -25 8
1 11 -1 8 -6 -10 -16 18 -44 37 -36 14 5 17 13 12 35 -4 17 -2 29 4 29 10 0
41 -39 41 -52 0 -4 -21 -23 -46 -42 -45 -35 -71 -39 -60 -9 6 15 -37 68 -56
68 -24 0 -17 21 15 43 17 12 33 22 35 22 1 0 1 -12 0 -27z m1496 -4 c-2 -4 3
-12 11 -19 19 -16 20 -44 1 -37 -20 8 -56 -35 -56 -66 0 -33 -3 -33 -35 -5
-28 24 -34 54 -9 44 12 -5 15 -2 10 9 -3 9 -2 14 3 11 4 -3 18 5 30 18 16 17
19 25 10 28 -18 6 -4 24 20 24 11 0 18 -3 15 -7z m-1574 -57 c0 -10 14 -31 30
-47 36 -34 37 -49 8 -84 -30 -34 -50 -33 -84 7 -16 17 -36 32 -46 32 -25 0
-22 12 7 40 13 12 22 27 18 33 -3 6 -1 7 4 4 6 -4 18 2 28 13 23 25 35 25 35
2z m1680 -51 c37 -34 38 -48 5 -63 -30 -13 -43 -5 -25 17 15 18 8 28 -22 32
-28 4 -48 -14 -44 -41 2 -14 11 -21 27 -22 40 -2 42 -3 29 -19 -14 -17 -56
-20 -65 -4 -4 6 -12 8 -19 6 -8 -3 -12 8 -11 37 2 50 9 64 39 76 36 15 55 11
86 -19z m-1625 9 c3 -5 1 -10 -4 -10 -6 0 -11 5 -11 10 0 6 2 10 4 10 3 0 8
-4 11 -10z m-164 -80 c10 -6 19 -17 19 -25 0 -9 6 -12 15 -9 18 7 40 -38 31
-63 -4 -10 -7 -20 -6 -22 1 -2 -13 -10 -31 -18 -28 -12 -35 -11 -63 5 -26 15
-32 26 -36 65 -5 35 -3 47 7 47 8 0 16 7 19 15 7 18 18 19 45 5z m1863 -1 c-2
-4 0 -10 6 -14 16 -10 12 -46 -5 -43 -21 4 -76 -34 -70 -49 9 -26 -18 -24 -41
3 -29 37 -30 44 -1 42 27 -2 78 32 72 49 -2 6 -1 13 2 16 8 8 42 4 37 -4z
m-1270 -62 c11 -13 28 -36 36 -51 8 -16 25 -33 37 -39 12 -5 20 -13 17 -18 -2
-4 5 -40 16 -80 23 -83 19 -107 -21 -150 -16 -17 -29 -35 -29 -40 0 -13 54
-11 68 3 14 14 102 28 102 16 0 -4 4 -8 9 -8 4 0 39 -18 77 -40 38 -22 96 -49
129 -61 33 -11 71 -27 83 -36 35 -22 71 -9 78 27 5 20 15 32 35 39 18 6 27 6
24 1 -9 -15 12 -12 27 4 23 23 165 45 152 24 -3 -5 4 -8 15 -8 32 0 131 -101
131 -133 0 -15 4 -27 9 -27 12 0 85 -78 113 -120 32 -48 56 -107 63 -156 9
-60 -36 -192 -93 -272 -20 -27 -22 -40 -17 -73 8 -47 -11 -128 -32 -136 -8 -3
-22 1 -31 10 -14 15 -14 18 0 34 21 23 22 112 2 120 -8 3 -20 0 -28 -6 -14
-11 -163 -18 -173 -7 -14 14 14 24 81 30 42 4 90 12 108 18 37 13 88 64 88 90
0 9 5 20 10 23 6 3 10 10 10 14 0 20 -141 -26 -156 -51 -4 -6 13 -9 45 -7 56
4 74 -16 24 -26 -16 -4 -45 -10 -66 -15 -21 -4 -39 -4 -43 1 -3 5 -12 9 -20 9
-8 0 -12 -4 -9 -10 3 -5 0 -7 -8 -5 -18 8 -87 -22 -93 -40 -4 -8 -10 -12 -15
-9 -6 3 -22 -2 -37 -12 -15 -10 -31 -17 -35 -16 -8 2 -37 -58 -37 -77 0 -6 31
8 69 30 70 40 91 47 91 28 0 -14 -58 -69 -74 -69 -6 0 -25 -14 -43 -30 -31
-30 -57 -37 -79 -22 -13 8 -25 62 -14 62 4 0 10 8 13 17 2 10 8 26 12 36 9 21
-18 23 -54 3 -19 -11 -21 -15 -10 -22 21 -14 20 -44 -2 -44 -15 0 -18 -6 -15
-30 3 -24 0 -30 -15 -30 -10 0 -26 12 -34 28 -13 22 -15 23 -12 5 5 -23 -9
-33 -48 -33 -29 0 -51 26 -47 58 6 38 -22 21 -28 -18 -7 -47 -30 -52 -30 -6 0
43 -16 48 -25 7 -5 -23 -13 -30 -38 -34 -18 -2 -38 0 -45 5 -6 6 -26 8 -42 4
-29 -5 -30 -4 -31 32 -1 20 -1 48 0 62 0 22 -1 21 -15 -9 -9 -19 -14 -45 -11
-57 2 -13 -3 -26 -15 -33 -28 -17 -31 -14 -25 24 7 43 2 44 -18 5 -9 -16 -20
-30 -25 -30 -15 0 -12 41 4 59 18 20 48 94 36 86 -6 -4 -19 -26 -30 -51 -12
-25 -27 -44 -36 -44 -9 0 -18 -8 -21 -18 -2 -10 -13 -24 -25 -31 -17 -10 -22
-10 -32 4 -10 14 -15 15 -49 0 -64 -26 -72 -13 -71 113 1 59 -2 112 -7 117 -4
6 -9 21 -12 35 -2 15 -5 5 -6 -22 -1 -51 -17 -64 -27 -23 -11 46 -21 26 -13
-28 5 -29 10 -89 11 -134 3 -75 2 -80 -14 -72 -11 6 -18 6 -18 1 0 -5 -12 -9
-27 -9 l-26 0 6 197 c7 196 7 197 -16 219 -13 11 -27 18 -31 14 -4 -4 -4 0 -1
9 4 9 2 19 -4 23 -6 3 -11 32 -11 63 0 40 -6 66 -20 87 -17 25 -20 47 -20 142
0 131 19 195 77 254 30 32 34 41 28 68 -4 17 -10 31 -14 31 -4 0 -6 16 -5 36
2 20 -1 44 -6 53 -11 22 10 91 29 91 8 0 11 6 7 15 -7 18 -2 19 16 3 8 -7 23
-18 33 -24 22 -13 25 -43 12 -158 -7 -59 -6 -68 7 -63 9 4 18 1 22 -5 4 -7 3
-8 -4 -4 -7 4 -12 0 -13 -11 -2 -25 -7 -70 -13 -120 -6 -49 1 -53 33 -19 12
13 40 32 62 42 33 16 38 23 32 39 -13 36 -3 238 13 263 8 12 11 22 7 22 -4 0
3 7 15 16 13 9 21 21 19 27 -3 9 30 53 42 56 2 1 13 -9 25 -22z m1338 -37 c5
0 4 -9 -2 -19 -5 -11 -14 -31 -19 -44 -9 -22 -7 -24 10 -20 12 3 18 11 15 19
-5 13 11 31 19 22 3 -2 11 -21 20 -42 15 -36 15 -37 -5 -26 -16 9 -28 6 -63
-15 -54 -31 -54 -31 -59 0 -3 14 -2 25 2 25 6 0 30 44 30 56 0 3 -9 0 -21 -6
-12 -7 -18 -18 -15 -26 8 -20 -11 -17 -40 5 -23 18 -23 20 -7 36 10 11 19 13
21 7 2 -6 17 -3 38 10 18 11 31 25 28 30 -4 6 0 14 7 19 10 6 17 2 23 -11 5
-11 13 -20 18 -20z m-1964 -64 c17 0 32 -3 32 -7 0 -14 -27 -69 -31 -64 -3 2
-11 -11 -18 -30 -13 -36 -48 -51 -39 -17 3 11 -9 35 -33 61 -47 55 -42 75 15
64 22 -4 56 -7 74 -7z m-106 -81 c15 -21 7 -32 -19 -29 -21 3 -17 0 15 -13 23
-9 42 -23 42 -30 0 -7 4 -13 9 -13 4 0 3 -16 -3 -35 -12 -40 -21 -43 -35 -16
-13 23 -74 47 -79 31 -6 -16 -22 -12 -22 6 0 8 9 37 21 64 17 39 26 49 43 47
11 -1 24 -6 28 -12z m2151 -25 c27 0 20 -23 -19 -61 -20 -18 -40 -45 -46 -59
-9 -23 -10 -24 -22 -8 -7 10 -16 15 -20 11 -4 -4 -4 0 -1 8 3 8 -3 35 -14 59
-11 24 -18 47 -16 50 2 3 29 4 62 3 32 -1 66 -2 76 -3z m-225 -1127 c-2 -14
14 -43 22 -38 10 6 36 -25 42 -51 4 -16 -2 -26 -23 -38 -16 -10 -29 -21 -29
-27 0 -18 -21 -8 -59 29 -49 47 -57 76 -25 91 13 6 24 15 24 20 0 5 10 12 23
14 12 2 23 5 25 6 1 0 1 -2 0 -6z m-1693 -13 c4 -6 11 -7 17 -4 7 5 8 2 4 -5
-5 -7 -1 -18 10 -25 28 -21 24 -83 -6 -107 -36 -27 -55 -24 -100 17 -39 35
-53 68 -27 62 20 -5 77 41 70 57 -6 17 22 21 32 5z m1604 -104 c16 -19 4 -43
-12 -27 -6 6 -15 11 -21 11 -5 0 -1 -6 10 -14 11 -8 23 -11 28 -6 11 11 56
-17 56 -35 0 -18 -88 -88 -100 -80 -6 4 -8 11 -4 17 9 14 -45 68 -62 61 -27
-10 -13 18 26 53 22 20 37 41 34 46 -9 15 30 -8 45 -26z m-1467 -33 c24 -21
45 -38 47 -40 2 -1 -6 -14 -18 -29 l-21 -26 -8 22 c-7 19 -9 20 -21 6 -11 -14
-11 -16 3 -16 22 0 20 -23 -3 -44 -17 -15 -22 -16 -39 -4 -49 35 -83 69 -77
78 4 6 11 7 17 4 13 -8 57 45 58 69 0 26 15 21 62 -20z m1348 -68 c7 -9 10
-18 7 -21 -10 -11 17 -31 35 -26 14 3 18 -2 18 -21 0 -33 -26 -41 -51 -16 -22
22 -52 19 -43 -5 3 -8 12 -12 19 -10 26 10 25 -15 -1 -35 -34 -26 -44 -26 -44
0 0 27 -31 79 -47 79 -23 0 -14 26 13 38 14 7 23 15 21 20 -10 15 61 12 73 -3z
m-1183 -45 c20 -10 39 -17 43 -15 3 2 4 -12 2 -32 -3 -21 -1 -33 5 -30 5 3 10
-1 10 -9 0 -10 -4 -11 -11 -4 -15 15 -26 12 -26 -9 0 -10 -6 -23 -13 -29 -14
-12 -88 -11 -80 0 2 5 -7 13 -21 19 -26 12 -25 45 1 34 12 -4 14 0 10 15 -3
11 -2 18 3 15 10 -6 24 25 21 48 -3 22 11 22 56 -3z m1059 -12 c4 -6 3 -13 -3
-15 -16 -6 17 -71 39 -76 20 -6 25 -27 7 -27 -6 0 -38 -13 -71 -30 -69 -36
-72 -36 -65 -10 3 11 1 20 -4 20 -5 0 -9 -8 -9 -19 0 -26 -48 -57 -64 -41 -8
9 -8 14 2 17 8 3 12 27 12 69 0 78 16 84 67 24 36 -41 60 -50 69 -26 8 20 -23
76 -41 76 -24 0 -17 18 13 34 33 19 39 19 48 4z m-966 -28 c0 -11 59 -34 67
-27 3 4 15 -3 27 -16 16 -17 28 -21 51 -17 17 3 41 0 55 -7 31 -16 54 -17 44
-1 -4 6 -3 8 3 5 8 -5 6 -22 -4 -54 -8 -27 -17 -58 -20 -70 -3 -14 -14 -22
-34 -25 -17 -3 -32 -1 -35 3 -2 4 -18 10 -34 14 -30 7 -43 35 -16 35 19 0 32
70 14 81 -20 13 -32 5 -43 -27 -17 -50 -24 -55 -69 -52 l-42 3 3 40 c2 22 5
58 6 81 1 25 7 41 14 41 7 0 13 -4 13 -7z m692 -77 c3 -39 5 -49 13 -66 4 -9
4 -28 1 -41 -5 -19 -14 -24 -53 -29 -27 -3 -49 -4 -51 -2 -1 1 -4 18 -6 36 -2
19 -7 42 -11 52 -9 23 10 45 49 56 47 14 56 13 58 -6z m-112 -86 c0 -24 -53
-77 -78 -77 -11 0 -31 9 -44 20 -14 10 -27 18 -29 15 -2 -2 -2 16 -1 40 5 51
24 72 72 77 29 2 39 -2 58 -26 12 -17 22 -38 22 -49z m-241 33 c26 -47 31 -49
31 -15 0 16 -6 25 -15 25 -8 0 -15 7 -15 15 0 11 11 15 40 15 29 0 40 -4 40
-15 0 -8 -4 -15 -9 -15 -5 0 -12 -27 -16 -60 -8 -72 -25 -78 -55 -19 -21 40
-32 44 -36 13 -2 -9 3 -13 11 -11 9 4 11 -1 8 -14 -6 -21 -38 -25 -63 -9 -12
8 -13 12 -2 19 8 4 16 28 19 51 5 37 4 42 -10 37 -11 -4 -14 -2 -10 9 3 7 17
14 32 14 21 0 32 -9 50 -40z"/>
<path d="M1586 2543 c-6 -14 -5 -15 5 -6 7 7 10 15 7 18 -3 3 -9 -2 -12 -12z"/>
<path d="M1621 2523 c-1 -30 -5 -43 -15 -43 -8 0 -17 6 -19 13 -3 7 -6 5 -6
-5 -1 -25 39 -24 46 1 3 11 12 22 22 24 15 4 15 5 -1 6 -9 0 -19 11 -21 24 -2
12 -5 3 -6 -20z"/>
<path d="M1410 2528 c0 -46 15 -66 37 -52 37 23 23 84 -18 84 -15 0 -19 -7
-19 -32z"/>
<path d="M1943 2492 c-12 -2 -24 -13 -27 -27 -3 -13 -8 -30 -11 -37 -4 -9 4
-19 21 -27 23 -10 26 -10 21 4 -4 8 -2 15 3 15 16 0 30 37 22 57 -4 11 -15 17
-29 15z"/>
<path d="M1860 2440 c-6 -11 -7 -20 -2 -20 6 0 12 9 15 20 3 11 3 20 1 20 -2
0 -8 -9 -14 -20z"/>
<path d="M2010 2439 c0 -5 5 -7 10 -4 6 3 10 8 10 11 0 2 -4 4 -10 4 -5 0 -10
-5 -10 -11z"/>
<path d="M2041 2424 c0 -11 3 -14 6 -6 3 7 2 16 -1 19 -3 4 -6 -2 -5 -13z"/>
<path d="M1986 2401 c-4 -7 -5 -15 -2 -18 9 -9 19 4 14 18 -4 11 -6 11 -12 0z"/>
<path d="M1170 2501 c0 -16 22 -71 28 -71 18 1 29 18 30 48 1 29 -2 32 -29 32
-16 0 -29 -4 -29 -9z"/>
<path d="M1061 2391 c-8 -6 -9 -11 -3 -15 6 -3 14 -1 17 5 9 14 2 20 -14 10z"/>
<path d="M2132 2336 c-11 -19 -18 -37 -15 -40 11 -10 49 -6 61 6 17 17 15 55
-4 62 -22 8 -20 10 -42 -28z"/>
<path d="M683 2223 c-18 -7 -16 -28 4 -44 14 -12 16 -12 8 0 -5 10 -4 12 4 7
6 -4 9 -11 6 -16 -3 -4 1 -13 9 -19 10 -9 17 -7 26 4 11 14 9 20 -16 44 -16
16 -35 27 -41 24z"/>
<path d="M577 2103 c-11 -10 -8 -53 4 -53 5 0 7 6 3 13 -4 7 -3 9 2 4 5 -5 9
-14 9 -20 0 -19 37 -14 49 6 9 15 7 22 -13 38 -24 20 -43 24 -54 12z"/>
<path d="M1168 2006 c-57 -104 -59 -108 -40 -122 9 -7 29 -14 45 -14 22 0 27
4 27 25 0 18 -5 25 -20 25 -16 0 -20 5 -17 25 1 13 7 28 12 32 4 5 5 2 0 -6
-6 -11 -4 -13 9 -8 10 4 25 7 34 7 16 1 15 2 0 14 -10 7 -18 18 -18 24 0 22
-19 21 -32 -2z"/>
<path d="M895 1960 c-3 -5 1 -10 9 -10 8 0 18 5 21 10 3 6 -1 10 -9 10 -8 0
-18 -4 -21 -10z"/>
<path d="M910 1940 c-13 -8 -12 -10 3 -10 9 0 17 5 17 10 0 12 -1 12 -20 0z"/>
<path d="M1230 1908 c0 -7 5 -20 10 -28 9 -13 11 -13 20 0 5 8 8 20 7 25 -5
15 -37 18 -37 3z"/>
<path d="M1178 1833 c7 -3 16 -2 19 1 4 3 -2 6 -13 5 -11 0 -14 -3 -6 -6z"/>
<path d="M1113 1785 c0 -22 2 -30 4 -17 2 12 2 30 0 40 -3 9 -5 -1 -4 -23z"/>
<path d="M1153 1795 c-3 -9 -3 -36 -1 -60 5 -43 -8 -78 -36 -97 -16 -11 -2
-19 42 -25 l40 -5 4 42 c2 23 1 43 -3 45 -3 2 -4 29 -1 60 4 51 3 55 -17 55
-12 0 -24 -7 -28 -15z m7 -140 c-7 -9 -15 -13 -19 -10 -3 3 1 10 9 15 21 14
24 12 10 -5z"/>
<path d="M1232 1768 c-2 -40 -1 -42 13 -24 18 24 20 66 2 66 -8 0 -14 -15 -15
-42z"/>
<path d="M876 1715 c-9 -24 -8 -27 7 -19 6 4 0 -4 -14 -18 -34 -32 -54 -132
-45 -230 7 -80 10 -88 37 -88 15 0 19 7 19 35 0 19 -5 35 -11 35 -5 0 -8 4 -5
9 4 5 1 43 -6 84 -6 41 -8 83 -3 93 4 11 7 26 6 34 -2 13 0 13 8 1 16 -24 43
6 39 42 -3 34 -22 47 -32 22z"/>
<path d="M1412 1652 c4 -15 -1 -17 -31 -15 -32 2 -33 1 -11 -6 14 -5 44 -9 68
-10 55 -1 82 -16 83 -44 1 -17 2 -18 6 -4 6 24 21 21 72 -13 47 -32 88 -47 98
-36 4 3 4 7 2 9 -14 12 -223 107 -234 107 -7 0 -18 7 -25 15 -17 21 -33 19
-28 -3z"/>
<path d="M1935 1624 c-18 -10 -25 -19 -17 -22 7 -2 20 2 29 10 14 11 16 11 8
-1 -6 -11 -4 -13 11 -6 25 11 52 10 94 -4 l34 -11 -21 21 c-28 29 -98 35 -138
13z"/>
<path d="M1237 1623 c-4 -3 -7 -11 -7 -17 0 -6 5 -5 12 2 6 6 9 14 7 17 -3 3
-9 2 -12 -2z"/>
<path d="M1000 1601 c0 -14 18 -23 31 -15 8 4 7 9 -2 15 -18 11 -29 11 -29 0z"/>
<path d="M1262 1601 c-11 -6 -10 -16 4 -49 9 -23 20 -42 26 -42 5 0 6 -5 3
-10 -7 -11 15 -81 24 -75 3 2 6 -9 7 -23 3 -69 125 -341 182 -406 28 -31 33
-34 27 -15 -4 13 -17 40 -29 59 -13 19 -31 52 -41 73 -9 20 -22 37 -27 37 -5
0 -6 5 -3 11 4 5 1 18 -7 27 -26 30 -108 277 -108 323 0 14 -5 30 -12 37 -8 8
-9 15 -1 23 7 7 19 3 39 -14 16 -13 45 -26 64 -29 19 -3 64 -19 100 -36 74
-34 152 -67 160 -68 3 0 32 -13 64 -27 94 -43 76 -24 -26 28 -51 26 -97 50
-103 55 -16 12 -123 70 -130 70 -3 0 -3 -6 0 -12 4 -7 -2 -2 -12 10 -11 13
-32 25 -46 25 -15 1 -27 5 -27 9 0 8 -67 28 -95 28 -11 0 -26 -4 -33 -9z"/>
<path d="M964 1559 c-3 -6 -2 -14 4 -18 5 -3 12 -15 15 -26 3 -13 5 -10 6 12
1 33 -13 51 -25 32z"/>
<path d="M1180 1555 c0 -8 5 -15 10 -15 6 0 10 7 10 15 0 8 -4 15 -10 15 -5 0
-10 -7 -10 -15z"/>
<path d="M1947 1544 c-8 -8 1 -24 14 -24 5 0 9 7 9 15 0 15 -12 20 -23 9z"/>
<path d="M1146 1531 c-4 -5 -2 -12 3 -15 5 -4 12 -2 15 3 4 5 2 12 -3 15 -5 4
-12 2 -15 -3z"/>
<path d="M950 1473 c0 -32 -2 -110 -5 -174 -3 -65 -1 -126 4 -140 7 -17 10 36
10 174 1 108 -1 197 -4 197 -3 0 -5 -26 -5 -57z"/>
<path d="M1251 1514 c0 -11 3 -14 6 -6 3 7 2 16 -1 19 -3 4 -6 -2 -5 -13z"/>
<path d="M1731 1498 c-30 -33 -34 -52 -6 -28 13 11 14 10 9 -5 -5 -11 -4 -16
3 -12 5 3 25 -2 44 -11 19 -10 52 -19 74 -21 l40 -2 -38 20 c-21 11 -46 17
-54 14 -11 -4 -14 -2 -9 6 11 17 -3 71 -19 71 -8 0 -28 -14 -44 -32z m49 18
c0 -2 -7 -7 -16 -10 -8 -3 -12 -2 -9 4 6 10 25 14 25 6z"/>
<path d="M1050 1511 c0 -5 6 -14 14 -20 16 -13 32 2 21 19 -8 12 -35 13 -35 1z"/>
<path d="M1200 1500 c-12 -8 -11 -10 8 -10 12 0 22 5 22 10 0 13 -11 13 -30 0z"/>
<path d="M1126 1491 c-4 -5 -2 -12 3 -15 5 -4 12 -2 15 3 4 5 2 12 -3 15 -5 4
-12 2 -15 -3z"/>
<path d="M1904 1492 c3 -5 -9 -7 -27 -4 -25 3 -29 1 -17 -7 23 -16 60 -13 60
4 0 8 -5 15 -11 15 -5 0 -8 -4 -5 -8z"/>
<path d="M2038 1478 c-3 -20 -9 -23 -45 -22 -36 1 -43 -3 -48 -23 -4 -18 3
-31 29 -57 33 -34 34 -34 54 -15 16 14 20 27 15 53 -3 19 -1 36 6 40 13 9 15
46 2 46 -5 0 -11 -10 -13 -22z"/>
<path d="M1026 1481 c-3 -5 1 -14 9 -21 12 -10 15 -10 15 3 0 19 -16 31 -24
18z"/>
<path d="M2134 1463 c3 -16 9 -43 12 -60 5 -22 12 -33 24 -33 12 0 19 -10 22
-29 2 -17 2 -29 -1 -29 -3 1 -23 -7 -43 -17 -49 -24 -78 -84 -78 -163 0 -63
-22 -113 -35 -80 -4 10 -5 38 -3 63 3 45 -4 57 -19 32 -4 -6 -20 -18 -36 -26
-15 -8 -41 -36 -58 -63 -29 -45 -34 -48 -74 -48 -28 0 -45 -5 -48 -14 -3 -8
-1 -17 6 -19 13 -5 -18 -39 -62 -69 -39 -27 -11 -22 60 11 35 15 77 33 92 40
17 7 25 16 21 23 -4 6 -3 8 3 5 5 -3 27 5 47 19 39 27 58 26 36 -1 -19 -22 -8
-26 24 -10 16 8 34 15 40 15 7 0 21 7 32 16 17 14 18 15 1 10 -27 -9 -39 2
-27 24 6 12 17 16 29 13 12 -3 31 3 46 15 14 11 33 18 43 15 10 -2 30 7 45 21
35 32 51 33 45 2 -4 -21 -2 -23 16 -16 16 5 23 20 29 59 4 31 3 60 -3 71 -5
10 -10 28 -10 39 0 12 -9 26 -19 33 -10 6 -17 17 -15 23 3 7 -2 18 -11 25 -8
7 -15 19 -15 26 0 9 -11 14 -28 14 -17 0 -32 8 -40 20 -7 12 -18 18 -24 14 -7
-4 -8 -3 -4 5 9 14 -2 51 -16 51 -6 0 -8 -11 -4 -27z"/>
<path d="M1664 1465 c21 -16 32 -13 21 4 -3 6 -14 11 -23 11 -15 -1 -15 -2 2
-15z"/>
<path d="M1420 1456 c0 -8 5 -18 10 -21 6 -3 10 3 10 14 0 12 -4 21 -10 21 -5
0 -10 -6 -10 -14z"/>
<path d="M2093 1434 c1 -21 -2 -49 -6 -61 -7 -18 -5 -22 7 -17 18 7 22 79 7
103 -6 10 -9 2 -8 -25z"/>
<path d="M994 1315 c0 -77 2 -107 3 -67 2 40 2 103 0 140 -2 37 -3 4 -3 -73z"/>
<path d="M1150 1441 c0 -6 5 -13 10 -16 6 -3 10 1 10 9 0 9 -4 16 -10 16 -5 0
-10 -4 -10 -9z"/>
<path d="M1505 1433 c9 -22 22 -77 30 -125 4 -23 11 -38 20 -38 10 0 12 -7 5
-29 -4 -15 -5 -40 -3 -55 3 -14 -1 -33 -8 -42 -7 -9 -12 -34 -10 -57 4 -56 40
-103 83 -110 18 -3 42 -8 53 -12 15 -4 34 5 72 34 28 23 57 41 64 41 8 0 29 9
48 21 24 14 32 25 28 39 -3 11 -2 19 2 18 27 -3 31 5 31 68 0 56 -2 65 -16 60
-8 -3 -12 -2 -9 4 3 6 -4 14 -17 19 -13 5 -30 16 -37 25 -7 9 -19 16 -26 16
-12 0 -140 65 -162 82 -7 5 -18 6 -24 2 -7 -4 -9 -3 -5 4 4 7 -10 16 -36 23
-24 7 -47 16 -52 21 -18 15 -39 9 -31 -9z"/>
<path d="M1200 1430 c0 -5 7 -10 15 -10 8 0 15 5 15 10 0 6 -7 10 -15 10 -8 0
-15 -4 -15 -10z"/>
<path d="M1260 1424 c0 -8 5 -12 10 -9 6 3 10 10 10 16 0 5 -4 9 -10 9 -5 0
-10 -7 -10 -16z"/>
<path d="M1027 1423 c-12 -11 -8 -213 3 -213 15 0 31 49 30 85 -3 48 -1 55 15
55 9 0 15 9 15 25 0 35 -26 32 -33 -5 -11 -50 -30 -37 -23 15 7 44 6 51 -7 38z"/>
<path d="M1385 1388 c10 -44 13 -48 36 -48 14 0 19 -7 19 -24 0 -35 18 -42 26
-11 5 20 -2 35 -31 70 -44 54 -59 58 -50 13z"/>
<path d="M1460 1411 c0 -5 6 -14 14 -20 12 -10 13 -8 9 8 -5 21 -23 30 -23 12z"/>
<path d="M1154 1388 c-4 -7 -3 -8 4 -4 8 5 12 -5 12 -33 0 -22 5 -43 11 -46 7
-5 8 5 4 29 -6 29 -4 36 8 36 8 0 18 -6 20 -12 3 -8 6 -6 6 4 2 28 -51 50 -65
26z"/>
<path d="M1890 1374 c0 -8 5 -12 10 -9 6 4 8 11 5 16 -9 14 -15 11 -15 -7z"/>
<path d="M911 1354 c0 -11 3 -14 6 -6 3 7 2 16 -1 19 -3 4 -6 -2 -5 -13z"/>
<path d="M1810 1365 c0 -2 10 -10 23 -16 20 -11 21 -11 8 4 -13 16 -31 23 -31
12z"/>
<path d="M1290 1344 c0 -8 5 -12 10 -9 6 4 8 11 5 16 -9 14 -15 11 -15 -7z"/>
<path d="M1950 1294 c0 -41 2 -45 20 -39 17 6 20 2 20 -29 0 -19 5 -38 12 -42
8 -5 9 -2 5 10 -4 10 -3 15 3 11 11 -7 33 32 25 45 -3 6 1 7 9 4 9 -3 16 -1
16 5 0 6 -5 11 -11 11 -7 0 -9 10 -5 25 6 23 5 24 -21 14 -24 -9 -30 -7 -42
10 -21 33 -31 25 -31 -25z"/>
<path d="M1110 1314 c0 -8 5 -12 10 -9 6 3 10 10 10 16 0 5 -4 9 -10 9 -5 0
-10 -7 -10 -16z"/>
<path d="M1141 1304 c0 -11 3 -14 6 -6 3 7 2 16 -1 19 -3 4 -6 -2 -5 -13z"/>
<path d="M867 1304 c-10 -11 -8 -74 2 -74 5 0 7 -10 4 -22 -4 -19 -2 -20 6 -7
24 38 14 128 -12 103z"/>
<path d="M1231 1277 c-20 -22 -98 -65 -178 -98 -26 -11 -32 -20 -38 -57 -4
-24 -5 -45 -3 -47 2 -2 16 -1 31 2 21 4 25 8 15 15 -10 7 -9 12 7 24 19 15 19
15 -9 8 -22 -5 -28 -4 -24 7 5 14 83 59 104 59 6 0 14 7 18 15 3 8 13 15 22
15 14 0 84 63 84 75 0 9 -7 5 -29 -18z"/>
<path d="M1271 1269 c-1 -45 -5 -68 -11 -64 -3 2 -12 -6 -19 -18 -11 -18 -11
-20 0 -9 31 29 32 -4 2 -40 -8 -9 -12 -22 -7 -29 4 -7 3 -10 -3 -6 -6 4 -30
-8 -54 -26 -24 -19 -62 -41 -84 -50 -39 -16 -39 -16 -10 -16 17 0 48 11 70 24
22 14 49 29 60 34 12 5 25 15 31 22 17 23 46 109 41 122 -3 7 1 24 9 38 15 28
19 52 4 29 -9 -13 -11 -13 -19 -1 -7 11 -9 8 -10 -10z"/>
<path d="M1322 1240 c0 -14 2 -19 5 -12 2 6 2 18 0 25 -3 6 -5 1 -5 -13z"/>
<path d="M1480 1250 c-8 -5 -11 -12 -7 -16 4 -4 13 -2 19 4 15 15 7 24 -12 12z"/>
<path d="M1194 1178 c-16 -18 -43 -43 -59 -56 l-30 -22 31 14 c18 9 46 34 64
56 38 48 35 52 -6 8z"/>
<path d="M1351 1153 c-1 -39 5 -76 16 -97 18 -39 39 -52 47 -30 3 8 1 14 -3
14 -5 0 -7 17 -4 39 3 23 1 41 -6 45 -10 6 -17 -28 -12 -57 1 -5 -3 -6 -9 -2
-5 3 -10 30 -11 58 -1 80 -17 106 -18 30z"/>
<path d="M1950 1174 c0 -14 4 -23 10 -19 6 3 10 15 10 26 0 10 -4 19 -10 19
-5 0 -10 -12 -10 -26z"/>
<path d="M1305 1160 c-3 -5 -1 -10 4 -10 6 0 11 5 11 10 0 6 -2 10 -4 10 -3 0
-8 -4 -11 -10z"/>
<path d="M1104 1144 c-18 -14 -18 -15 4 -4 12 6 22 13 22 15 0 8 -5 6 -26 -11z"/>
<path d="M1480 1143 c0 -5 5 -15 10 -23 8 -12 10 -11 10 8 0 12 -4 22 -10 22
-5 0 -10 -3 -10 -7z"/>
<path d="M1156 1099 c-21 -16 -35 -29 -30 -29 6 0 25 13 44 30 45 37 37 37
-14 -1z"/>
<path d="M1294 1095 c3 -8 1 -15 -4 -15 -6 0 -10 -11 -10 -25 0 -14 -4 -33 -9
-43 -16 -30 -34 -99 -29 -112 5 -16 48 93 48 121 0 11 7 33 15 48 14 28 11 41
-8 41 -5 0 -7 -7 -3 -15z"/>
<path d="M1058 1063 c-16 -2 -28 -9 -28 -15 0 -12 59 -3 74 12 10 10 5 11 -46
3z"/>
<path d="M1320 1027 c0 -13 7 -30 16 -38 14 -11 15 -9 12 21 -4 39 -28 54 -28
17z"/>
<path d="M1181 997 c-6 -8 -7 -18 -3 -22 4 -5 1 -5 -5 -1 -7 4 -25 1 -40 -7
-16 -8 -40 -20 -55 -26 -44 -17 -35 -35 14 -27 44 7 118 58 118 82 0 18 -14
18 -29 1z"/>
<path d="M1426 995 c-3 -8 -1 -15 4 -15 5 0 11 -10 13 -22 3 -14 5 -9 6 15 1
37 -12 50 -23 22z"/>
<path d="M1380 974 c0 -8 5 -12 10 -9 6 4 8 11 5 16 -9 14 -15 11 -15 -7z"/>
<path d="M1482 965 c0 -16 2 -22 5 -12 2 9 2 23 0 30 -3 6 -5 -1 -5 -18z"/>
<path d="M1593 929 c-12 -12 -7 -66 7 -82 3 -4 31 4 61 17 30 14 46 25 37 25
-9 1 -21 7 -25 15 -8 14 -45 36 -60 36 -5 0 -14 -5 -20 -11z"/>
<path d="M1321 914 c0 -11 3 -14 6 -6 3 7 2 16 -1 19 -3 4 -6 -2 -5 -13z"/>
<path d="M1383 850 c0 -41 2 -58 4 -37 2 20 2 54 0 75 -2 20 -4 3 -4 -38z"/>
<path d="M1155 900 c-3 -5 -1 -10 4 -10 6 0 11 5 11 10 0 6 -2 10 -4 10 -3 0
-8 -4 -11 -10z"/>
<path d="M1093 877 c-18 -6 -33 -14 -33 -18 0 -11 49 3 61 17 6 8 10 13 8 13
-2 -1 -19 -7 -36 -12z"/>
<path d="M1118 843 c-54 -29 -67 -60 -20 -48 30 7 59 30 73 57 13 23 4 22 -53
-9z"/>
<path d="M1301 849 c-7 -12 -10 -23 -8 -26 3 -3 11 5 17 17 15 28 8 35 -9 9z"/>
<path d="M543 1925 c-9 -25 4 -29 17 -6 7 15 7 21 0 21 -6 0 -13 -7 -17 -15z"/>
<path d="M420 1841 c0 -5 7 -11 15 -15 8 -3 15 -1 15 3 0 5 -7 11 -15 15 -8 3
-15 1 -15 -3z"/>
<path d="M2523 1825 c0 -8 6 -16 14 -19 15 -6 15 -4 7 18 -8 20 -21 21 -21 1z"/>
<path d="M2347 693 c-10 -9 -9 -23 1 -23 5 0 17 7 28 15 19 14 19 14 -2 15
-11 0 -24 -3 -27 -7z"/>
<path d="M2386 649 c-14 -9 -15 -13 -5 -19 14 -9 49 5 49 20 0 13 -20 12 -44
-1z"/>
<path d="M672 660 c-28 -23 -31 -29 -17 -40 8 -7 25 -10 40 -6 20 5 25 13 25
36 0 40 -10 42 -48 10z"/>
<path d="M2250 580 c0 -5 5 -10 11 -10 5 0 7 5 4 10 -3 6 -8 10 -11 10 -2 0
-4 -4 -4 -10z"/>
<path d="M2314 551 c0 -11 4 -17 8 -15 4 3 8 12 8 20 0 8 -4 14 -8 14 -4 0 -8
-9 -8 -19z"/>
<path d="M2280 540 c0 -5 5 -10 10 -10 6 0 10 5 10 10 0 6 -4 10 -10 10 -5 0
-10 -4 -10 -10z"/>
<path d="M810 570 c0 -5 5 -10 11 -10 5 0 7 5 4 10 -3 6 -8 10 -11 10 -2 0 -4
-4 -4 -10z"/>
<path d="M765 521 c-3 -5 -1 -12 5 -16 5 -3 10 1 10 9 0 18 -6 21 -15 7z"/>
<path d="M2143 503 c-16 -6 -17 -33 -3 -33 11 0 26 28 19 34 -2 2 -10 1 -16
-1z"/>
<path d="M987 447 c-3 -9 1 -18 10 -21 23 -9 29 2 11 20 -13 14 -16 14 -21 1z"/>
<path d="M957 396 c-3 -8 1 -17 10 -20 20 -8 27 -1 20 19 -8 19 -23 20 -30 1z"/>
<path d="M1106 359 c-9 -45 -8 -49 12 -49 23 0 48 60 29 72 -23 15 -34 8 -41
-23z"/>
<path d="M1260 336 c0 -9 5 -16 10 -16 6 0 10 5 10 10 0 6 5 10 11 10 7 0 9
-13 5 -37 -3 -21 -3 -32 0 -25 3 6 13 12 22 12 11 0 13 3 6 8 -7 4 -13 16 -15
27 -5 25 -49 34 -49 11z"/>
<path d="M1250 275 c0 -8 4 -15 10 -15 5 0 7 7 4 15 -4 8 -8 15 -10 15 -2 0
-4 -7 -4 -15z"/>
<path d="M1715 331 c-3 -5 8 -9 24 -9 17 1 28 5 25 10 -7 11 -41 10 -49 -1z"/>
<path d="M1719 277 c15 -19 46 -23 56 -7 3 6 -3 10 -14 10 -10 0 -28 3 -38 7
-16 6 -16 5 -4 -10z"/>
<path d="M1564 295 c-13 -54 45 -90 67 -41 15 32 -2 64 -36 64 -18 0 -27 -7
-31 -23z"/>
</g>
</svg>
